<?xml version="1.0" encoding="utf-8"?>
<!-- Generator: Adobe Illustrator 16.0.4, SVG Export Plug-In . SVG Version: 6.00 Build 0)  -->
<!DOCTYPE svg PUBLIC "-//W3C//DTD SVG 1.1//EN" "http://www.w3.org/Graphics/SVG/1.1/DTD/svg11.dtd">
<svg version="1.1" id="svg2211" xmlns:svg="http://www.w3.org/2000/svg"
	 xmlns="http://www.w3.org/2000/svg" xmlns:xlink="http://www.w3.org/1999/xlink" x="0px" y="0px" width="500px" height="438.75px"
	 viewBox="0 0 500 438.75" enable-background="new 0 0 500 438.75" xml:space="preserve">
<path id="path2220_2_" fill="#FF766A" stroke="#FF766A" stroke-miterlimit="10" d="M227.805,173.234
	c14.262-0.841,27.027-1.756,28.37-2.031c1.336-0.277,5.05-3.018,8.249-6.098c8.68-8.351,25.398-18.104,38.275-22.324
	c9.12-2.987,13.752-3.82,25.164-4.518c22.502-1.376,44.929,0.729,58.951,5.54c12.276,4.208,33.829,19.043,41.9,28.839
	c2.229,2.707,6.103,5.176,11.26,5.176c3.71,0,17.413,0,14.951,0c-0.963,0-6.228,0.001,0,0.001c0,0-11.572,0,0,0c0.451,0-8.35,0,0,0
	l0,0h0.148l0,0l-0.148,2.839v3.225l0,0l0,0l0,0c-6.606,0-0.618,0,0,0c2.46,0,1.369-0.032-7.325-0.032
	c-10.21,0-14.905-1.477-19.152-2.983c-1.546-0.547-6.769-4.756-11.608-9.355c-23.56-22.368-45.027-29.383-84.54-27.626
	c-12.541,0.561-16.022,1.148-25.932,4.392c-13.83,4.53-31.978,15.784-36.576,22.682c-1.679,2.513-3.916,5.013-4.978,5.556
	c-1.058,0.543-13.25,1.547-27.092,2.23"/>
<g id="g3241_1_" transform="translate(13.11061,0)">
	<g id="g2241_1_" transform="translate(-5.2466854,-8.3878519)">
		<path id="path2220_1_" stroke="#000000" stroke-miterlimit="10" d="M177.483,223.776c-0.726-1.157-3.145-35.854-5.761-82.576
			c-3.017-53.909-3.48-56.8-4.353-27.191c-0.887,30.045-3.552,87.99-4.382,95.262c-0.928,8.122-3.062,6.726-9.373-6.127
			l-5.339-10.872h-10.588h-10.588l-8.888-9.507c-9.361-10.013-16.197-14.458-20.567-13.374c-3.597,0.892-11.226,8-17.001,15.843
			l-5.186,7.038h-22.01H41.846v-3.165v-2.903h10.026h20.436l3-4.297c3.833-5.491,13.095-14.144,17.605-16.447
			c4.443-2.267,9.847-2.269,14.286-0.005c1.914,0.979,7.852,6.046,13.196,11.264l9.716,9.485h11.149h11.149l2.759,5.816l2.76,5.817
			l0.247-3.54c0.136-1.948,1.408-35.171,2.824-73.829c3.277-89.438,4.233-106.253,6.146-108.142c1.267-1.251,1.533-1.251,1.985,0
			c1.426,3.936,2.873,24.645,7.393,105.807c2.705,48.564,5.244,88.299,5.645,88.299c0.398,0,3.342-4.975,6.542-11.057
			c6.761-12.851,3.454-11.366,30.671-13.758c9.575-0.84,18.146-1.755,19.047-2.03c0.898-0.276,3.391-3.019,5.539-6.097
			c5.825-8.352,17.052-18.104,25.698-22.325c6.123-2.987,9.23-3.819,16.895-4.517c15.108-1.377,30.165,0.728,39.581,5.538
			c8.242,4.209,22.713,19.044,28.132,28.841c1.496,2.707,4.096,5.176,7.562,5.176c2.487,0,5.118,0,10.614,0
			c5.022,0,9.121,0,13.306,0c6.605,0,5.799,0,13.563,0c4.479,0,4.649,0,10.257,0h10.105h14.306h18.935v3.013v3.056h-19.564H418.42
			l-8.997-0.036c-4.438,0-10.909,0-13.661,0c-3.021,0-18.938,0-28.81,0c-6.854,0-10.01-1.476-12.857-2.983
			c-1.037-0.547-4.545-4.757-7.793-9.355c-15.818-22.367-30.231-29.382-56.762-27.625c-8.422,0.558-10.76,1.147-17.409,4.392
			c-9.287,4.53-21.47,15.783-24.558,22.681c-1.127,2.513-2.631,5.014-3.344,5.557c-0.71,0.542-8.896,1.547-18.191,2.23
			c-9.295,0.685-19.294,1.551-22.221,1.927l-5.32,0.684l-6.641,13.307C182.253,222.29,179.257,226.611,177.483,223.776z"/>
	</g>
	<path id="path2268_4_" fill="none" stroke="#000000" stroke-miterlimit="10" d="M457.507,182.959"/>
	<path id="path2268_3_" fill="none" stroke="#000000" stroke-miterlimit="10" d="M13.89,183.718"/>
</g>
<text transform="matrix(1 0 0 1 99.5508 145.4854)" font-family="'TimesNewRomanPSMT'" font-size="42">P</text>
<text transform="matrix(1 0 0 1 141.8359 238.1318)" font-family="'TimesNewRomanPSMT'" font-size="42">Q</text>
<text transform="matrix(1 0 0 1 136.8359 31.2383)" font-family="'TimesNewRomanPSMT'" font-size="42">R</text>
<text transform="matrix(1 0 0 1 191.4419 240.8877)" font-family="'TimesNewRomanPSMT'" font-size="42">S</text>
<text transform="matrix(1 0 0 1 288.5801 124.7559)" font-family="'TimesNewRomanPSMT'" font-size="42">T</text>
<text transform="matrix(1 0 0 1 348.6084 123.7559)" fill="#FF766A" font-family="'TimesNewRomanPSMT'" font-size="42">T</text>
<g>
	<path stroke="#000000" stroke-width="2" stroke-miterlimit="10" d="M452.47,377.52l-0.341,0.436
		c-0.66,0.859-1.575,2.038-4.09,2.615c-0.386,0.089-0.82,0.103-1.247,0.136c-3.146-0.011-4.389-1.281-4.98-1.894
		c-0.116-0.112-0.219-0.228-0.333-0.326c-2.058-2.619-3.075-5.168-4.062-7.633l-0.398-1c-0.927-2.512-1.729-5.006-2.536-7.506
		l-0.968-2.979c-0.784-2.754-1.641-5.482-2.497-8.21l-1.166-3.628c-1.016-2.967-2.059-6.037-3.595-8.979l-0.364-0.642
		c-0.312-0.558-0.612-1.104-1.017-1.593c-1.196,1.568-1.889,3.267-2.608,5.051l-0.456,1.111c-1.128,3.207-2.207,6.685-3.354,10.906
		c-1.043,3.907-2.079,7.817-3.095,11.715c-1.06,4.008-2.15,8.015-3.419,12.002l-0.557,1.567c-0.869,2.493-1.766,5.074-3.577,7.547
		l-0.325,0.354c-0.492,0.553-1.755,1.999-5.111,1.775c-0.431-0.032-0.835-0.109-1.188-0.226c-1.913-0.638-2.556-1.593-3.069-2.358
		c-0.12-0.181-0.236-0.361-0.378-0.529c-1.872-3.426-2.87-6.812-3.833-10.09l-0.085-0.291c-0.979-3.482-1.807-6.969-2.638-10.457
		l-1.464-6.485c-0.611-2.702-1.223-5.405-1.809-8.108c-0.916-3.967-1.867-7.938-2.921-11.91l-0.493-1.666
		c-0.8-2.736-1.625-5.559-3.09-8.259c-1.472,2.815-2.272,5.759-3.059,8.611l-0.184,0.672c-0.621,2.306-1.133,4.624-1.645,6.94
		l-1.408,6.658c-0.696,3.53-1.399,7.063-2.064,10.598l-0.449,2.363c-0.646,3.396-1.299,6.805-2.013,10.205
		c-0.798,4.262-1.79,8.527-2.812,12.795l-0.564,1.94c-0.714,2.504-1.452,5.095-2.922,7.615l-0.282,0.415
		c-0.384,0.611-1.101,1.749-3.692,2.083c-0.779,0.097-1.631,0.039-2.304-0.173c-2.024-0.635-2.566-1.646-2.965-2.386
		c-0.112-0.219-0.227-0.437-0.389-0.634c-1.848-4.104-2.766-8.107-3.66-11.979c-0.984-4.49-1.849-8.981-2.594-13.475
		c-0.904-4.979-1.718-9.977-2.51-14.971c-0.322-1.873-0.631-3.753-0.934-5.639c-0.369-2.278-0.733-4.558-1.146-6.836
		c-0.716-4.377-1.538-8.735-2.372-13.1l-0.101-0.477c-0.809-3.807-1.646-7.739-2.934-11.563c-0.159-0.312-0.309-0.709-0.455-1.101
		v-0.002c-0.387,0.965-0.676,1.962-0.979,2.988l-0.312,1.056c-1.233,4.653-2.087,9.284-2.824,13.592
		c-0.486,2.715-0.901,5.431-1.321,8.146c-0.28,1.846-0.562,3.69-0.87,5.537c-0.343,2.604-0.718,5.229-1.097,7.848
		c-0.379,2.611-0.756,5.223-1.097,7.835l-2.646,18.487c-0.539,3.574-1.071,7.146-1.712,10.712c-0.706,4.1-1.574,8.875-2.874,13.599
		l-0.404,1.254c-0.48,1.556-0.977,3.161-2.347,4.698c-0.795,0.805-2.213,1.052-3.336,1.021c-1.797-0.045-3.064-0.734-3.536-1.398
		c-1.411-2.104-1.973-4.257-2.521-6.337l-0.319-1.217c-0.871-3.649-1.504-7.34-2.12-10.915l-0.361-2.139
		c-0.751-5.09-1.479-10.17-2.141-15.246l-0.664-5.295c-0.411-3.303-0.835-6.605-1.2-9.91l-1.783-14.781
		c-0.577-4.928-1.189-9.854-1.821-14.783c-0.638-4.852-1.317-9.701-2.029-14.553c-0.714-4.519-1.382-8.598-2.331-12.769
		c-0.16-0.548-0.311-1.134-0.453-1.718c-0.111-0.459-0.227-0.915-0.351-1.362c-0.138,0.509-0.263,1.022-0.39,1.542l-0.271,1.09
		c-0.771,3.219-1.303,6.529-1.812,9.729l-0.737,4.946c-0.552,4.002-1.088,8.002-1.563,12.006l-1.574,13.945
		c-0.275,2.877-0.582,5.768-0.894,8.654c-0.323,3.049-0.649,6.1-0.932,9.148l-1.731,16.697c-0.479,4.852-0.996,9.717-1.562,14.576
		c-0.569,5.512-1.271,11.032-2.001,16.545c-0.544,4.14-1.201,8.267-1.939,12.4l-0.393,1.825c-0.505,2.396-1.023,4.872-2.265,7.296
		c-0.05,0.09-0.113,0.178-0.211,0.263c-0.316,0.447-0.869,1.212-2.617,1.433c-0.181,0.021-0.392,0.031-0.612,0.031
		c-0.826,0-1.834-0.146-2.374-0.354c-0.25-0.097-0.464-0.215-0.627-0.349c-1.148-0.96-1.467-2.008-1.754-2.936
		c-0.105-0.323-0.199-0.645-0.33-0.955c-1.198-4.238-1.846-8.476-2.48-12.576l-0.066-0.422c-0.682-4.977-1.325-9.946-1.861-14.914
		c-0.605-5.603-1.188-11.209-1.721-16.812l-0.473-5.055c-0.299-3.195-0.588-6.396-0.867-9.589c-0.23-2.385-0.438-4.776-0.641-7.169
		c-0.23-2.791-0.469-5.585-0.76-8.374c-0.243-3.11-0.516-6.204-0.784-9.294l-1.917-21.346c-0.289-3.358-0.626-6.711-0.971-10.068
		l-0.893-8.724c-0.483-4.37-0.972-8.733-1.601-13.095c-0.58-4.818-1.329-9.17-2.271-13.319c-0.141-0.361-0.26-0.81-0.388-1.261
		c-0.269-1.01-0.521-1.967-1.332-2.776c-0.61-0.61,0-1.328,1.354-1.603c1.37-0.272,2.961,0,3.571,0.609
		c1.15,1.146,1.465,2.335,1.772,3.48c0.108,0.414,0.218,0.822,0.368,1.227c0.975,4.266,1.727,8.655,2.316,13.497
		c0.627,4.36,1.119,8.737,1.596,13.118l0.896,8.734c0.342,3.359,0.678,6.723,0.969,10.082l1.922,21.346
		c0.269,3.097,0.543,6.193,0.778,9.291c0.293,2.785,0.525,5.585,0.765,8.387c0.197,2.387,0.396,4.771,0.637,7.156
		c0.273,3.201,0.57,6.398,0.869,9.591l0.465,5.054c0.54,5.597,1.111,11.196,1.722,16.797c0.53,4.956,1.173,9.918,1.853,14.875
		l0.067,0.41c0.535,3.479,1.089,7.053,1.949,10.573c0.208-0.835,0.377-1.666,0.551-2.485l0.4-1.818
		c0.731-4.09,1.382-8.202,1.926-12.321c0.729-5.507,1.423-11.018,1.993-16.524c0.57-4.856,1.082-9.719,1.562-14.566l1.731-16.692
		c0.284-3.052,0.606-6.106,0.935-9.161c0.305-2.883,0.608-5.767,0.887-8.656l1.574-13.953c0.473-4.012,1.014-8.016,1.562-12.027
		l0.738-4.977c0.512-3.221,1.051-6.555,1.832-9.828l0.264-1.077c0.467-1.931,0.945-3.929,2.244-5.863
		c0.316-0.718,1.734-1.321,3.404-1.36c1.279-0.006,2.814,0.267,3.449,1.184c1.406,1.916,1.906,3.918,2.387,5.852
		c0.144,0.573,0.289,1.143,0.449,1.713c0.967,4.236,1.639,8.34,2.358,12.883c0.717,4.861,1.396,9.719,2.026,14.58
		c0.629,4.937,1.233,9.861,1.822,14.795l1.778,14.783c0.367,3.303,0.785,6.602,1.204,9.899l0.663,5.297
		c0.657,5.066,1.382,10.14,2.135,15.204l0.366,2.133c0.611,3.554,1.236,7.224,2.097,10.821l0.325,1.213
		c0.24,0.926,0.479,1.833,0.781,2.718c0.085-0.25,0.158-0.497,0.233-0.753l0.403-1.259c1.277-4.632,2.137-9.375,2.834-13.453
		c0.64-3.559,1.173-7.122,1.708-10.686l2.646-18.469c0.344-2.612,0.72-5.23,1.098-7.844c0.378-2.619,0.765-5.232,1.104-7.854
		c0.306-1.859,0.58-3.701,0.868-5.545c0.415-2.728,0.829-5.45,1.32-8.172c0.744-4.328,1.609-8.986,2.848-13.705l0.314-1.062
		c0.561-1.919,1.141-3.904,2.477-5.835c0.981-1.212,2.414-1.53,3.457-1.592c1.232-0.089,2.421,0.174,3.197,0.663
		c1.603,1.254,2.069,2.486,2.531,3.681c0.141,0.361,0.276,0.724,0.446,1.078c1.344,3.962,2.185,7.929,3.005,11.769l0.104,0.489
		c0.844,4.388,1.669,8.755,2.385,13.132c0.413,2.276,0.785,4.562,1.149,6.848c0.306,1.882,0.605,3.756,0.931,5.635
		c0.792,4.994,1.599,9.979,2.506,14.961c0.746,4.484,1.606,8.955,2.583,13.422c0.845,3.684,1.721,7.489,3.298,11.177
		c0.979-1.984,1.59-4.116,2.176-6.185l0.562-1.925c1.009-4.216,2.001-8.466,2.798-12.72c0.717-3.404,1.366-6.804,2.016-10.197
		l0.45-2.361c0.664-3.533,1.358-7.068,2.061-10.604l1.418-6.684c0.515-2.333,1.025-4.67,1.655-7l0.182-0.674
		c0.887-3.225,1.798-6.557,3.669-9.785c0.041-0.079,0.11-0.158,0.195-0.232c0.106-0.098,0.187-0.211,0.279-0.328
		c0.427-0.541,1.129-1.448,3.302-1.778c0.405-0.062,0.83-0.085,1.245-0.054c2.66,0.164,3.523,1.254,3.942,1.777
		c0.089,0.111,0.17,0.223,0.271,0.312c0.1,0.083,0.177,0.169,0.228,0.259c1.885,3.119,2.828,6.342,3.738,9.461l0.498,1.678
		c1.062,4.002,2.015,7.99,2.934,11.976c0.593,2.706,1.197,5.407,1.805,8.106l1.47,6.471c0.824,3.474,1.652,6.945,2.619,10.406
		l0.086,0.283c0.94,3.215,1.915,6.535,3.638,9.702c0.052,0.049,0.137,0.165,0.229,0.302c1.346-2.037,2.141-4.32,2.915-6.537
		l0.551-1.562c1.255-3.949,2.341-7.933,3.398-11.921c1.013-3.901,2.043-7.812,3.088-11.725c1.156-4.256,2.239-7.761,3.395-11.031
		l0.461-1.129c0.818-2.018,1.668-4.104,3.384-6.099c1.037-1.034,2.326-1.594,3.866-1.726c1.214-0.109,2.421,0.07,3.384,0.49
		c2.162,1.219,2.901,2.55,3.549,3.726l0.359,0.638c1.604,3.067,2.665,6.186,3.69,9.199l1.18,3.654
		c0.86,2.736,1.728,5.478,2.508,8.219l0.961,2.963c0.792,2.48,1.594,4.961,2.504,7.436l0.403,0.984
		c0.948,2.374,1.928,4.832,3.688,7.105c0.006-0.002,0.073,0.051,0.188,0.154c0.15-0.172,0.286-0.354,0.418-0.521l0.34-0.432"/>
	<path stroke="#000000" stroke-width="2" stroke-miterlimit="10" d="M52.652,376.721l0.339,0.434c0.132,0.166,0.27,0.35,0.423,0.521
		c0.108-0.105,0.178-0.156,0.185-0.154c1.76-2.273,2.738-4.733,3.688-7.105l0.402-0.984c0.914-2.475,1.712-4.955,2.505-7.438
		l0.961-2.963c0.781-2.74,1.647-5.482,2.51-8.219l1.178-3.652c1.023-3.016,2.083-6.133,3.689-9.2l0.36-0.64
		c0.646-1.172,1.387-2.506,3.549-3.725c0.962-0.419,2.17-0.598,3.383-0.488c1.542,0.133,2.831,0.689,3.87,1.725
		c1.714,1.996,2.563,4.081,3.383,6.098l0.459,1.131c1.155,3.271,2.237,6.775,3.393,11.03c1.047,3.91,2.079,7.822,3.089,11.724
		c1.059,3.99,2.145,7.974,3.398,11.922l0.551,1.562c0.773,2.216,1.567,4.502,2.914,6.536c0.093-0.139,0.179-0.251,0.231-0.301
		c1.721-3.168,2.696-6.488,3.637-9.702l0.088-0.284c0.968-3.459,1.794-6.932,2.62-10.406l1.467-6.469
		c0.604-2.703,1.212-5.402,1.804-8.109c0.918-3.983,1.873-7.972,2.934-11.974l0.497-1.677c0.912-3.118,1.854-6.342,3.737-9.462
		c0.051-0.091,0.132-0.175,0.228-0.257c0.108-0.09,0.184-0.202,0.273-0.312c0.415-0.523,1.281-1.613,3.941-1.779
		c0.417-0.029,0.843-0.008,1.245,0.055c2.175,0.33,2.875,1.238,3.303,1.779c0.093,0.115,0.173,0.23,0.281,0.328
		c0.084,0.074,0.153,0.152,0.194,0.232c1.87,3.23,2.785,6.562,3.669,9.786l0.183,0.673c0.628,2.328,1.14,4.665,1.653,7l1.417,6.684
		c0.703,3.535,1.399,7.071,2.062,10.604l0.449,2.361c0.649,3.396,1.297,6.793,2.015,10.198c0.799,4.253,1.79,8.505,2.799,12.718
		l0.562,1.925c0.589,2.069,1.197,4.198,2.176,6.187c1.578-3.688,2.453-7.496,3.296-11.179c0.979-4.468,1.839-8.937,2.586-13.42
		c0.908-4.98,1.716-9.97,2.505-14.964c0.322-1.877,0.627-3.752,0.929-5.631c0.367-2.289,0.738-4.572,1.15-6.852
		c0.718-4.376,1.542-8.742,2.385-13.13l0.1-0.489c0.823-3.84,1.665-7.808,3.005-11.767c0.172-0.354,0.31-0.718,0.45-1.078
		c0.458-1.194,0.929-2.429,2.53-3.683c0.776-0.487,1.966-0.748,3.198-0.662c1.043,0.062,2.476,0.382,3.457,1.593
		c1.336,1.93,1.916,3.914,2.474,5.836l0.315,1.062c1.241,4.721,2.108,9.377,2.85,13.705c0.488,2.723,0.902,5.445,1.319,8.174
		c0.288,1.842,0.563,3.683,0.871,5.545c0.34,2.617,0.722,5.233,1.102,7.852c0.379,2.615,0.756,5.23,1.099,7.846l2.647,18.469
		c0.534,3.562,1.067,7.126,1.705,10.685c0.698,4.079,1.557,8.821,2.834,13.453l0.403,1.259c0.077,0.257,0.152,0.504,0.233,0.753
		c0.304-0.886,0.541-1.791,0.784-2.718l0.324-1.212c0.858-3.599,1.486-7.269,2.098-10.821l0.367-2.133
		c0.752-5.062,1.476-10.139,2.136-15.205l0.665-5.297c0.417-3.297,0.835-6.596,1.202-9.898l1.779-14.783
		c0.591-4.934,1.195-9.857,1.826-14.793c0.627-4.863,1.309-9.719,2.026-14.582c0.72-4.543,1.391-8.646,2.359-12.885
		c0.162-0.568,0.306-1.138,0.448-1.711c0.481-1.936,0.982-3.935,2.386-5.854c0.633-0.915,2.168-1.186,3.448-1.182
		c1.67,0.037,3.089,0.641,3.408,1.36c1.294,1.938,1.773,3.935,2.241,5.862l0.264,1.08c0.781,3.271,1.318,6.604,1.831,9.826
		l0.738,4.976c0.55,4.012,1.088,8.017,1.563,12.028l1.572,13.953c0.277,2.89,0.581,5.772,0.886,8.657
		c0.325,3.056,0.649,6.109,0.935,9.158l1.731,16.694c0.481,4.849,0.993,9.709,1.561,14.567c0.573,5.506,1.264,11.018,1.995,16.522
		c0.543,4.12,1.193,8.231,1.926,12.322l0.396,1.818c0.175,0.818,0.347,1.652,0.552,2.485c0.862-3.522,1.416-7.097,1.949-10.573
		l0.065-0.41c0.682-4.958,1.323-9.92,1.855-14.876c0.608-5.602,1.182-11.202,1.721-16.796l0.466-5.055
		c0.298-3.191,0.595-6.389,0.869-9.592c0.237-2.383,0.438-4.77,0.64-7.154c0.236-2.801,0.468-5.602,0.761-8.387
		c0.237-3.098,0.51-6.195,0.778-9.293l1.923-21.344c0.292-3.361,0.625-6.724,0.969-10.08l0.897-8.736
		c0.479-4.381,0.969-8.758,1.599-13.118c0.588-4.843,1.34-9.233,2.317-13.496c0.153-0.405,0.258-0.813,0.368-1.226
		c0.307-1.149,0.621-2.336,1.773-3.483c0.609-0.608,2.202-0.88,3.569-0.608c1.356,0.272,1.968,0.991,1.356,1.603
		c-0.812,0.812-1.062,1.767-1.332,2.774c-0.129,0.453-0.247,0.899-0.386,1.264c-0.944,4.148-1.692,8.5-2.276,13.318
		c-0.627,4.36-1.112,8.726-1.598,13.096l-0.893,8.725c-0.343,3.355-0.681,6.71-0.97,10.066l-1.918,21.346
		c-0.268,3.093-0.539,6.186-0.782,9.296c-0.292,2.789-0.531,5.582-0.763,8.374c-0.2,2.391-0.405,4.786-0.639,7.167
		c-0.278,3.194-0.569,6.396-0.868,9.591l-0.471,5.055c-0.534,5.603-1.115,11.207-1.722,16.812
		c-0.534,4.966-1.181,9.938-1.861,14.913l-0.065,0.422c-0.633,4.101-1.281,8.338-2.48,12.576c-0.129,0.312-0.226,0.632-0.331,0.955
		c-0.288,0.928-0.605,1.976-1.755,2.936c-0.164,0.134-0.374,0.252-0.627,0.349c-0.539,0.206-1.548,0.354-2.373,0.354
		c-0.222,0-0.434-0.013-0.614-0.033c-1.747-0.22-2.304-0.984-2.619-1.431c-0.096-0.084-0.16-0.174-0.21-0.263
		c-1.24-2.426-1.76-4.901-2.263-7.296l-0.393-1.826c-0.737-4.134-1.396-8.261-1.94-12.4c-0.73-5.514-1.428-11.035-2.001-16.545
		c-0.566-4.858-1.081-9.724-1.562-14.576l-1.73-16.698c-0.286-3.049-0.61-6.1-0.934-9.149c-0.311-2.888-0.614-5.777-0.892-8.653
		l-1.573-13.943c-0.476-4.006-1.015-8.006-1.562-12.006l-0.74-4.947c-0.505-3.201-1.04-6.512-1.81-9.729l-0.268-1.092
		c-0.133-0.521-0.256-1.031-0.391-1.541c-0.124,0.449-0.237,0.903-0.351,1.363c-0.146,0.584-0.294,1.17-0.455,1.718
		c-0.946,4.17-1.616,8.249-2.329,12.768c-0.712,4.852-1.394,9.701-2.031,14.553c-0.635,4.93-1.243,9.855-1.821,14.783l-1.784,14.781
		c-0.365,3.305-0.789,6.608-1.202,9.909l-0.666,5.296c-0.66,5.075-1.386,10.156-2.138,15.246l-0.363,2.139
		c-0.618,3.575-1.251,7.264-2.122,10.915l-0.321,1.216c-0.547,2.079-1.108,4.234-2.52,6.338c-0.47,0.664-1.74,1.354-3.535,1.398
		c-1.122,0.03-2.546-0.214-3.34-1.021c-1.367-1.536-1.863-3.146-2.342-4.698l-0.407-1.254c-1.299-4.725-2.164-9.496-2.871-13.6
		c-0.639-3.562-1.172-7.137-1.713-10.711l-2.646-18.486c-0.342-2.613-0.719-5.225-1.097-7.834c-0.38-2.623-0.757-5.244-1.097-7.851
		c-0.306-1.848-0.588-3.69-0.872-5.536c-0.417-2.716-0.831-5.431-1.318-8.146c-0.737-4.307-1.593-8.938-2.823-13.592l-0.315-1.057
		c-0.302-1.027-0.591-2.025-0.977-2.988v0.002c-0.146,0.395-0.295,0.789-0.454,1.1c-1.286,3.824-2.123,7.76-2.933,11.566
		l-0.103,0.476c-0.831,4.364-1.655,8.724-2.373,13.099c-0.412,2.278-0.778,4.56-1.146,6.838c-0.302,1.883-0.606,3.766-0.933,5.639
		c-0.793,4.992-1.602,9.99-2.51,14.97c-0.746,4.492-1.609,8.983-2.594,13.476c-0.891,3.868-1.809,7.875-3.658,11.979
		c-0.164,0.196-0.276,0.414-0.39,0.633c-0.396,0.738-0.94,1.751-2.965,2.385c-0.671,0.212-1.521,0.27-2.302,0.173
		c-2.591-0.333-3.307-1.472-3.692-2.081l-0.281-0.415c-1.47-2.521-2.21-5.111-2.923-7.615l-0.561-1.94
		c-1.027-4.269-2.022-8.535-2.815-12.796c-0.717-3.399-1.366-6.808-2.016-10.206l-0.448-2.363c-0.666-3.53-1.367-7.063-2.063-10.596
		l-1.41-6.658c-0.515-2.318-1.023-4.637-1.644-6.943l-0.185-0.67c-0.784-2.854-1.588-5.797-3.059-8.612
		c-1.462,2.701-2.29,5.521-3.092,8.258l-0.491,1.669c-1.052,3.969-2.005,7.945-2.917,11.908c-0.588,2.703-1.198,5.407-1.81,8.109
		l-1.462,6.486c-0.832,3.487-1.657,6.974-2.636,10.455l-0.087,0.293c-0.961,3.275-1.959,6.663-3.832,10.09
		c-0.143,0.168-0.258,0.35-0.379,0.528c-0.511,0.771-1.156,1.722-3.065,2.358c-0.353,0.116-0.759,0.192-1.19,0.226
		c-3.356,0.224-4.619-1.224-5.11-1.774l-0.327-0.354c-1.811-2.474-2.707-5.055-3.578-7.549l-0.555-1.565
		c-1.266-3.988-2.354-7.994-3.419-12.002c-1.013-3.898-2.051-7.809-3.093-11.716c-1.149-4.221-2.227-7.698-3.356-10.905
		l-0.454-1.113c-0.724-1.783-1.413-3.479-2.61-5.051c-0.404,0.489-0.704,1.033-1.017,1.596l-0.363,0.642
		c-1.539,2.938-2.582,6.009-3.596,8.978l-1.165,3.627c-0.859,2.729-1.718,5.455-2.5,8.211l-0.966,2.979
		c-0.806,2.5-1.611,4.996-2.536,7.508l-0.398,0.998c-0.986,2.465-2.005,5.014-4.062,7.633c-0.116,0.101-0.217,0.211-0.334,0.326
		c-0.594,0.612-1.835,1.883-4.98,1.895c-0.428-0.035-0.861-0.047-1.249-0.137c-2.512-0.578-3.427-1.756-4.091-2.614l-0.34-0.437"/>
	<path stroke="#000000" stroke-width="2" stroke-miterlimit="10" d="M48.228,367.553"/>
</g>
<text transform="matrix(1 0 0 1 326.5 44.5)" font-family="'TimesNewRomanPSMT'" font-size="42">Long QT</text>
<text transform="matrix(1 0 0 1 324.6934 275.7197)" font-family="'TimesNewRomanPSMT'" font-size="42">Torsades</text>
</svg>
