<?xml version="1.0" encoding="utf-8"?>
<!-- Generator: Adobe Illustrator 16.0.4, SVG Export Plug-In . SVG Version: 6.00 Build 0)  -->
<!DOCTYPE svg PUBLIC "-//W3C//DTD SVG 1.1//EN" "http://www.w3.org/Graphics/SVG/1.1/DTD/svg11.dtd">
<svg version="1.1" id="svg2211" xmlns:svg="http://www.w3.org/2000/svg"
	 xmlns="http://www.w3.org/2000/svg" xmlns:xlink="http://www.w3.org/1999/xlink" x="0px" y="0px" width="500px" height="500px"
	 viewBox="-32.333 -120.127 500 500" enable-background="new -32.333 -120.127 500 500" xml:space="preserve">
<circle display="none" fill="#FF766A" cx="217.667" cy="129.873" r="230.25"/>
<g>
	<path fill="#FF766A" d="M439.117,125.161V79.928c0-4.711-5.654-7.539-9.424-4.711c-46.174,36.751-129.101,55.598-212.026,55.598
		c-81.983,0-164.91-18.847-212.027-55.598c-3.77-2.827-9.423,0-9.423,4.711v45.232l0,0c0,0.943,0,1.885,0,3.77
		c0,52.771,98.946,96.119,221.45,96.119c122.505,0,221.45-43.348,221.45-97.062C439.117,127.046,439.117,126.104,439.117,125.161
		L439.117,125.161z"/>
	<path fill="#FF766A" d="M439.117,251.434v-45.231c0-4.712-5.654-7.539-9.424-4.712c-46.174,36.751-129.101,55.598-212.026,55.598
		c-81.983,0-164.91-18.847-212.027-55.598c-3.77-2.827-9.423,0-9.423,4.712v45.231l0,0c0,0.943,0,1.886,0,3.77
		c0,52.771,98.946,96.119,221.45,96.119c122.505,0,221.45-43.348,221.45-97.062C439.117,253.32,439.117,252.378,439.117,251.434
		L439.117,251.434z"/>
	<ellipse fill="#FF766A" cx="217.667" cy="5.484" rx="221.45" ry="97.061"/>
</g>
<g display="none">
	<path display="inline" fill="#FFFFFF" d="M410.333,125.95V86.911c0-4.066-4.88-6.506-8.133-4.066
		c-39.852,31.719-111.422,47.985-182.992,47.985c-70.757,0-142.327-16.266-182.992-47.985c-3.253-2.44-8.133,0-8.133,4.066v39.039
		l0,0c0,0.813,0,1.626,0,3.253c0,45.545,85.396,82.957,191.125,82.957s191.125-37.412,191.125-83.77
		C410.333,127.576,410.333,126.763,410.333,125.95L410.333,125.95z"/>
	<path display="inline" fill="#FFFFFF" d="M410.333,234.931v-39.037c0-4.066-4.88-6.507-8.133-4.066
		c-39.852,31.718-111.422,47.983-182.992,47.983c-70.757,0-142.327-16.266-182.992-47.983c-3.253-2.44-8.133,0-8.133,4.066v39.037
		l0,0c0,0.813,0,1.627,0,3.254c0,45.544,85.396,82.956,191.125,82.956s191.125-37.412,191.125-83.77
		C410.333,236.558,410.333,235.745,410.333,234.931L410.333,234.931z"/>
	<ellipse display="inline" fill="#FFFFFF" cx="219.208" cy="22.661" rx="191.125" ry="83.77"/>
</g>
<g id="g3241" transform="translate(13.11061,0)" display="none">
	<g id="g2241" transform="translate(-5.2466854,-8.3878519)" display="inline">
		<path id="path2220" d="M145.445,217.169c-0.766-1.238-3.322-38.357-6.085-88.342c-3.188-57.674-3.676-60.766-4.599-29.09
			c-0.937,32.145-3.752,94.135-4.629,101.914c-0.98,8.689-3.235,7.196-9.902-6.555l-5.64-11.631h-11.185H92.22l-9.39-10.171
			c-9.889-10.712-17.109-15.468-21.728-14.309c-3.799,0.954-11.857,8.559-17.96,16.949l-5.478,7.53h-23.25h-23.25v-3.246v-3.246
			h21.587h21.587l3.169-4.598c4.048-5.874,13.833-15.131,18.598-17.595c4.693-2.427,10.403-2.429,15.091-0.005
			c2.022,1.047,8.295,6.468,13.94,12.05l10.264,10.147h11.778h11.777l2.916,6.222l2.916,6.222l0.262-3.787
			c0.144-2.083,1.487-37.626,2.983-78.983c3.462-95.683,4.471-113.671,6.492-115.691c1.338-1.338,1.619-1.338,2.097,0
			c1.506,4.21,3.035,26.365,7.811,113.195c2.857,51.954,5.54,94.463,5.962,94.463c0.421,0,3.531-5.322,6.911-11.828
			c7.143-13.748,3.649-12.161,32.401-14.719c10.116-0.9,19.17-1.878,20.121-2.172c0.949-0.295,3.583-3.229,5.852-6.522
			c6.153-8.936,18.013-19.368,27.147-23.883c6.467-3.196,9.755-4.087,17.847-4.833c15.961-1.474,31.866,0.78,41.813,5.925
			c8.707,4.503,23.993,20.374,29.719,30.854c1.58,2.896,2.446,3.374,6.106,3.374c2.629,0,7.322-1.447,12.223-3.77
			c4.377-2.074,11.202-4.567,15.169-5.543c6.946-1.707,7.489-1.689,14.653,0.487c4.091,1.242,10.477,4.223,14.192,6.625l6.753,4.364
			h15.112h15.109v3.246v3.246h-15.777h-15.779l-8.722-5.367c-4.797-2.951-11.233-5.93-14.306-6.617
			c-5.917-1.323-6.374-1.207-30.351,7.732c-6.021,2.245-11.563,2.634-14.574,1.021c-1.097-0.585-4.802-5.089-8.235-10.008
			c-16.709-23.929-31.936-31.435-59.959-29.555c-8.897,0.598-11.368,1.229-18.394,4.699c-9.809,4.847-22.68,16.885-25.942,24.264
			c-1.19,2.688-2.777,5.364-3.529,5.945c-0.75,0.581-9.397,1.655-19.217,2.387c-9.819,0.731-20.381,1.659-23.473,2.062l-5.621,0.731
			l-7.016,14.235C150.484,215.579,147.319,220.202,145.445,217.169z"/>
	</g>
	<path id="path2268_2_" display="inline" fill="none" stroke="#FD0000" stroke-width="2.2" d="M441.556,174.089"/>
	<path id="path2268_1_" display="inline" fill="none" stroke="#FD0000" stroke-width="2.2" d="M-27.077,174.9"/>
</g>
<g id="g3241_1_" transform="translate(13.11061,0)">
	<g id="g2241_1_" transform="translate(-5.2466854,-8.3878519)">
		<path id="path2220_1_" stroke="#000000" stroke-width="7" stroke-miterlimit="10" d="M134.491,221.985
			c-0.781-1.247-3.388-38.631-6.206-88.97c-3.251-58.084-3.75-61.198-4.69-29.297c-0.956,32.373-3.827,94.804-4.722,102.639
			c-0.999,8.751-3.299,7.247-10.099-6.602l-5.752-11.714H91.614H80.206l-9.577-10.243c-10.086-10.788-17.451-15.577-22.16-14.41
			c-3.875,0.961-12.094,8.619-18.318,17.07l-5.586,7.583H0.852h-12.5v-3.41v-3.128h10.803h22.017l3.232-4.63
			c4.129-5.916,14.109-15.239,18.968-17.721c4.787-2.443,10.61-2.445,15.392-0.005c2.062,1.055,8.46,6.514,14.218,12.136
			l10.468,10.22h12.012h12.012l2.973,6.266l2.974,6.267l0.267-3.814c0.146-2.098,1.517-37.894,3.042-79.545
			c3.531-96.363,4.56-114.48,6.621-116.514c1.365-1.348,1.651-1.348,2.139,0c1.536,4.24,3.095,26.553,7.966,113.999
			c2.914,52.324,5.65,95.136,6.081,95.136c0.429,0,3.601-5.36,7.048-11.913c7.285-13.846,3.722-12.247,33.046-14.823
			c10.317-0.906,19.551-1.891,20.522-2.187c0.968-0.298,3.654-3.252,5.968-6.569c6.277-8.999,18.372-19.506,27.688-24.053
			c6.597-3.219,9.948-4.115,18.202-4.867c16.279-1.484,32.501,0.785,42.646,5.967c8.88,4.535,24.471,20.519,30.31,31.074
			c1.612,2.916,2.496,3.397,6.229,3.397c2.681,0,7.468-1.457,12.466-3.796c4.464-2.089,11.424-4.6,15.471-5.583
			c7.085-1.719,7.639-1.701,14.945,0.491c4.172,1.251,10.685,4.253,14.475,6.672l6.888,4.396h15.413h20.397v3.246v3.292h-21.078
			h-16.094l-8.896-5.405c-4.893-2.972-11.456-5.972-14.59-6.664c-6.034-1.333-6.5-1.216-30.955,7.787
			c-6.141,2.262-11.793,2.653-14.864,1.029c-1.118-0.589-4.897-5.125-8.399-10.079c-17.042-24.099-32.571-31.658-61.153-29.765
			c-9.074,0.602-11.594,1.237-18.76,4.732c-10.004,4.881-23.131,17.005-26.459,24.437c-1.213,2.707-2.832,5.402-3.599,5.987
			c-0.765,0.585-9.585,1.667-19.6,2.403c-10.014,0.737-20.788,1.671-23.941,2.076l-5.732,0.737l-7.155,14.336
			C139.631,220.384,136.403,225.04,134.491,221.985z"/>
	</g>
	<path id="path2268_4_" fill="none" stroke="#000000" stroke-width="7" stroke-miterlimit="10" d="M436.604,178.658"/>
	<path id="path2268_3_" fill="none" stroke="#000000" stroke-width="7" stroke-miterlimit="10" d="M-41.362,179.475"/>
</g>
</svg>
