<?xml version="1.0" encoding="utf-8"?>
<!-- Generator: Adobe Illustrator 16.0.4, SVG Export Plug-In . SVG Version: 6.00 Build 0)  -->
<!DOCTYPE svg PUBLIC "-//W3C//DTD SVG 1.1//EN" "http://www.w3.org/Graphics/SVG/1.1/DTD/svg11.dtd">
<svg version="1.1" id="Layer_1" xmlns="http://www.w3.org/2000/svg" xmlns:xlink="http://www.w3.org/1999/xlink" x="0px" y="0px"
	 width="200px" height="200px" viewBox="0 0 200 200" enable-background="new 0 0 200 200" xml:space="preserve">
<g>
	<path stroke="#000000" stroke-width="5" stroke-miterlimit="10" d="M27.2,145.6h18.6V176h108.4v-30.4h18.6c6.601,0,12-5.399,12-12
		V79.2v-4c0-6.6-5.399-12-12-12h-18.6V24H45.8v39.2H27.2c-6.6,0-12,5.4-12,12v4V133.6C15.2,140.2,20.6,145.6,27.2,145.6z M23.2,75.2
		c0-2.2,1.8-4,4-4h18.6h108.4h18.6c2.2,0,4,1.8,4,4v4c0,2.2-1.8,4-4,4H27.2c-2.2,0-4-1.8-4-4V75.2z M53.8,32h92.4v31.2H53.8V32z
		 M27.2,91.2h145.6c1.4,0,2.8-0.2,4-0.8v43c0,2.199-1.8,4-4,4h-18.6V128h5.8c2.2,0,4-1.8,4-4s-1.8-4-4-4h-5.8H45.8H40
		c-2.2,0-4,1.8-4,4s1.8,4,4,4h5.8v9.6H27.2c-2.2,0-4-1.8-4-4v-43C24.4,91,25.8,91.2,27.2,91.2z M53.8,168v-40h92.4v40H53.8z"/>
</g>
</svg>
